<?xml version="1.0" encoding="utf-8"?>
<!-- Generator: Adobe Illustrator 19.2.0, SVG Export Plug-In . SVG Version: 6.00 Build 0)  -->
<svg version="1.1" id="Calque_1" xmlns="http://www.w3.org/2000/svg" xmlns:xlink="http://www.w3.org/1999/xlink" x="0px" y="0px"
	 viewBox="0 0 197.5 200" style="enable-background:new 0 0 197.5 200;" xml:space="preserve">
<style type="text/css">
	.st0{fill:#E4EEF4;stroke:#A5B1B7;stroke-width:2;}
	.st1{fill:#FFFFFF;stroke:#1C1C1C;stroke-width:0.5;}
	.st2{fill:#E3E3E3;stroke:#1C1C1C;stroke-width:0.25;}
	.st3{fill:#62BC46;}
	.st4{fill:#F2F2F2;stroke:#1C1C1C;}
</style>
<circle class="st0" cx="99.9" cy="103.6" r="91.9"/>
<g>
	<path class="st1" d="M127.2,167.3H72.6c-1.2,0-2.2-1-2.2-2.2V63.7c0-1.2,1-2.2,2.2-2.2h54.6c1.2,0,2.2,1,2.2,2.2v101.4
		C129.4,166.3,128.4,167.3,127.2,167.3z"/>
	<rect x="73.1" y="68.4" class="st2" width="53.1" height="84"/>
	<circle class="st3" cx="99.6" cy="159.4" r="4.1"/>
	<g>
		<path class="st4" d="M121.5,30.2c0,11.8-21.3,40.7-21.3,40.7S78.9,41.9,78.9,30.2s9.5-21.3,21.3-21.3S121.5,18.4,121.5,30.2z"/>
		<circle class="st3" cx="100.2" cy="30" r="11.1"/>
	</g>
</g>
</svg>
