<?xml version="1.0" encoding="utf-8"?>
<!-- Generator: Adobe Illustrator 19.2.0, SVG Export Plug-In . SVG Version: 6.00 Build 0)  -->
<svg version="1.1" id="Calque_1" xmlns="http://www.w3.org/2000/svg" xmlns:xlink="http://www.w3.org/1999/xlink" x="0px" y="0px"
	 viewBox="0 0 252.3 252.5" style="enable-background:new 0 0 252.3 252.5;" xml:space="preserve">
<style type="text/css">
	.st0{fill:#E2ECF2;stroke:#A5B2B9;}
	.st1{fill:#FFFFFF;stroke:#989798;stroke-width:0.3285;}
	.st2{fill:#414141;}
	.st3{fill:#F3F3F3;}
	.st4{fill:#EE3330;}
	.st5{fill:#7BC144;}
	.st6{fill:#020202;}
	.st7{fill:#FFFFFF;stroke:#1C1C1C;stroke-width:0.6569;}
	.st8{fill:#FDD0B2;}
	.st9{fill:#67BD48;}
	.st10{fill:#61BB46;}
	.st11{fill:#87C541;}
	.st12{fill:#45B649;}
	.st13{fill:#EC2727;}
	.st14{fill:#E82328;}
	.st15{fill:#B62026;}
	.st16{fill:#EA3D3A;}
</style>
<circle class="st0" cx="124.2" cy="130.4" r="120.1"/>
<g>
	<path class="st1" d="M247.7,138.7c0-0.2,0-0.5,0-0.7l0,0l0,0c-0.2-0.6-0.6-1.1-1.4-1.5l-155.8-83c-1.9-1-4.9-0.9-6.7,0.1l-80,48
		c-1,0.6-1.4,1.4-1.2,2.2c0,1.6,0.2,9.3,0.2,9.9c0,0.7,0.5,1.4,1.5,2l155.8,83c1.9,1,4.9,0.9,6.7-0.1l80-48c0.9-0.6,1.4-1.3,1.3-2
		C248,147.9,247.8,140.9,247.7,138.7z"/>
	<path class="st2" d="M246.5,150.5l-80,48c-1.8,1.1-4.8,1.1-6.7,0.1l-155.8-83c-1-0.5-1.5-1.2-1.5-2c0-0.7-0.2-10.2-0.2-10.2
		c1.8-1.1,243.2,33.5,245.1,34.5c0,0,0.3,9.9,0.3,10.5C247.9,149.2,247.4,149.9,246.5,150.5z"/>
	<path class="st3" d="M246.2,140.2l-80,48c-1.8,1.1-4.8,1.1-6.7,0.1l-155.8-83c-1.9-1-1.9-2.7-0.2-3.8l80-48
		c1.8-1.1,4.8-1.1,6.7-0.1l155.8,83C248,137.4,248,139.1,246.2,140.2z"/>
	<polygon class="st4" points="222,128.8 144,175.6 14.9,106.7 92.8,60 	"/>
	<polygon class="st5" points="157.4,94.4 79.4,141.2 14.9,106.7 92.8,60 	"/>
	<polygon class="st6" points="99.9,63.7 22,110.5 14.9,106.7 92.8,60 	"/>
	<path class="st1" d="M199.8,154.3c-3.5-1.9-9-1.7-12.4,0.3c-3.3,2-3.2,5.1,0.3,7c3.5,1.9,9,1.7,12.4-0.3
		C203.4,159.3,203.3,156.2,199.8,154.3z"/>
	<g>
		<path class="st7" d="M56.6,2l-6.3,0.3l-8.4,1.9l-5.8,2.4c0,0,20.3,89.7,21.1,93.2c0.1,0.2,0,0.4,0.1,0.6l0,0l14.2,16.9
			c0.3,0.3,0.4,0.5,0.4,0.5l0,0l0,0l5.7-22.1l0,0c0-0.2-0.1-0.4-0.1-0.6C76.8,91.7,56.6,2,56.6,2z"/>
		<polygon class="st8" points="77.8,95.8 57.4,100.4 72,117.9 72,117.9 		"/>
		<path class="st9" d="M73.4,112.5c0.1-0.3-0.4,0-1.4,0.2c-0.3,0-0.8-0.2-1.1-0.2c-0.3,0.1-0.6,0.5-0.9,0.6
			c-0.9,0.3-1.7,0.2-1.5,0.5c0.5,0.6,3.5,4.3,3.5,4.3l0,0C72,117.9,73.1,113.3,73.4,112.5z"/>
		<path class="st10" d="M71.8,97.6c0.7,2.9-7.8,4.6-8.4,1.9C62.7,96,41.9,4.2,41.9,4.2l8.4-1.9C50.3,2.3,71,93.9,71.8,97.6z"/>
		<path class="st11" d="M77.6,95.2c0.6,2.8-5.2,5.1-5.8,2.4C71.1,94.1,50.3,2.3,50.3,2.3L56.5,2C56.5,2,76.8,91.7,77.6,95.2z"/>
		<path class="st12" d="M57.2,99.8c0.6,2.8,6.9,2.4,6.2-0.3C62.7,96,41.9,4.2,41.9,4.2l-5.8,2.4C36.1,6.6,56.4,96.3,57.2,99.8z"/>
	</g>
	<g>
		<path class="st7" d="M235.9,36.9l5.3,3.3l6.4,5.7l3.8,5c0,0-61.5,68.3-64,71c-0.2,0.2-0.2,0.4-0.4,0.5l0,0l-20.7,7.8
			c-0.4,0.2-0.6,0.2-0.6,0.2l0,0l0,0l5.8-22l0,0c0.1-0.2,0.3-0.3,0.4-0.5C174.4,105.2,235.9,36.9,235.9,36.9z"/>
		<polygon class="st8" points="171.5,108.4 187.1,122.4 165.7,130.4 165.7,130.4 		"/>
		<path class="st13" d="M167.2,125.1c0.1-0.3,0.4,0.2,1.2,0.9c0.2,0.2,0.8,0.2,1,0.4c0.3,0.2,0.3,0.8,0.5,1c0.7,0.7,1.3,1,1.1,1.1
			c-0.7,0.3-5.2,2-5.2,2l0,0C165.7,130.4,167,125.8,167.2,125.1z"/>
		<path class="st14" d="M175.8,112.8c-2,2.2,4.5,7.8,6.4,5.7c2.4-2.6,65.4-72.6,65.4-72.6l-6.4-5.7
			C241.3,40.2,178.4,110,175.8,112.8z"/>
		<path class="st15" d="M172,107.9c-1.9,2.2,2,7,3.9,4.9c2.4-2.6,65.4-72.6,65.4-72.6l-5.3-3.3C235.9,36.9,174.4,105.2,172,107.9z"
			/>
		<path class="st16" d="M187.5,121.9c-1.9,2.2-7.1-1.3-5.3-3.4c2.4-2.6,65.4-72.6,65.4-72.6l3.8,5
			C251.5,50.9,189.9,119.2,187.5,121.9z"/>
	</g>
</g>
</svg>
