<?xml version="1.0" encoding="utf-8"?>
<!-- Generator: Adobe Illustrator 19.2.0, SVG Export Plug-In . SVG Version: 6.00 Build 0)  -->
<svg version="1.1" id="Calque_1" xmlns="http://www.w3.org/2000/svg" xmlns:xlink="http://www.w3.org/1999/xlink" x="0px" y="0px"
	 viewBox="0 0 369 250.5" style="enable-background:new 0 0 369 250.5;" xml:space="preserve">
<style type="text/css">
	.st0{fill:none;stroke:#1C1C1C;stroke-width:1.0222;}
	.st1{fill:#E2ECF2;stroke:#A5B2B9;stroke-width:2;}
	.st2{fill:#79C144;stroke:#1C1C1C;stroke-width:1.0222;}
	.st3{fill:#EC2727;stroke:#1C1C1C;stroke-width:1.0222;}
	.st4{fill:#F3F3F3;stroke:#414141;stroke-width:2.0443;}
	.st5{fill:none;stroke:#727272;stroke-width:1.0222;}
	.st6{fill:#FFFFFF;stroke:#1C1C1C;stroke-width:1.0222;}
	.st7{fill:#F26A24;stroke:#1C1C1C;stroke-width:1.0222;}
	.st8{fill:#FFFFFF;stroke:#1C1C1C;stroke-width:1.5332;}
	.st9{fill:#E3E3E3;stroke:#1C1C1C;stroke-width:0.5111;}
	.st10{fill:#393A39;}
	.st11{fill:#79C144;}
	.st12{fill:#FFFFFF;stroke:#1C1C1C;stroke-width:1.3429;}
	.st13{fill:#FDD0B2;}
	.st14{fill:#EC2727;}
	.st15{fill:#E82328;}
	.st16{fill:#B62026;}
	.st17{fill:#EA3D3A;}
</style>
<g>
	<line class="st0" x1="340.4" y1="81.4" x2="340.4" y2="129.8"/>
</g>
<circle class="st1" cx="200.4" cy="131.7" r="110.3"/>
<circle class="st2" cx="340.4" cy="75.9" r="20.7"/>
<circle class="st1" cx="330.6" cy="213" r="17.2"/>
<circle class="st3" cx="59.1" cy="81.1" r="17.2"/>
<g>
	<path class="st4" d="M355.3,43.5c0,8.2-14.9,28.5-14.9,28.5s-14.9-20.2-14.9-28.5s6.7-14.9,14.9-14.9
		C348.7,28.6,355.3,35.3,355.3,43.5z"/>
	<circle class="st2" cx="340.4" cy="43.5" r="7.8"/>
</g>
<path class="st5" d="M138.1,214.8"/>
<path class="st5" d="M276.1,125.9"/>
<line class="st0" x1="151" y1="48.7" x2="201.5" y2="48.7"/>
<path class="st5" d="M268.7,172.6"/>
<g>
	<line class="st0" x1="268.7" y1="164.6" x2="268.7" y2="213"/>
	<line class="st0" x1="206.6" y1="123.2" x2="206.6" y2="53.2"/>
	<line class="st0" x1="206.6" y1="104.7" x2="256.1" y2="55.1"/>
	<path class="st5" d="M280.5,56.4"/>
	<path class="st5" d="M200.4,214.4"/>
	<path class="st5" d="M268.7,50.3"/>
	<path class="st5" d="M201.5,48.7"/>
	<path class="st5" d="M151,48.7"/>
</g>
<rect x="252.3" y="38.6" class="st6" width="32.7" height="21.1"/>
<rect x="252.3" y="82.8" class="st7" width="32.7" height="21.1"/>
<rect x="188.7" y="38.1" class="st2" width="32.7" height="21.1"/>
<rect x="188.4" y="203.8" class="st6" width="32.7" height="21.1"/>
<rect x="252.3" y="203.8" class="st6" width="32.7" height="21.1"/>
<line class="st0" x1="138.1" y1="214.8" x2="138.1" y2="133.2"/>
<line class="st0" x1="268.7" y1="172.6" x2="138.1" y2="91"/>
<line class="st0" x1="330.6" y1="134.1" x2="138.1" y2="133.1"/>
<rect x="121.7" y="121.5" class="st6" width="32.7" height="21.1"/>
<rect x="121.7" y="80.4" class="st6" width="32.7" height="21.1"/>
<rect x="121.8" y="203.8" class="st3" width="32.7" height="21.1"/>
<rect x="252.3" y="123.4" class="st6" width="32.7" height="21.1"/>
<rect x="324.1" y="123.4" class="st6" width="32.7" height="21.1"/>
<rect x="252.3" y="162" class="st6" width="32.7" height="21.1"/>
<rect x="121.8" y="38.1" class="st6" width="32.7" height="21.1"/>
<g>
	<path class="st8" d="M219.5,193.5l-56-10.1c-1.5-0.3-2.6-1.8-2.3-3.3l18.9-104.8c0.3-1.5,1.8-2.6,3.3-2.3l56,10.1
		c1.5,0.3,2.6,1.8,2.3,3.3l-18.9,104.8C222.5,192.7,221,193.8,219.5,193.5z"/>
	
		<rect x="173.9" y="84.4" transform="matrix(0.984 0.1779 -0.1779 0.984 26.1656 -33.8845)" class="st9" width="56.4" height="89.1"/>
	
		<rect x="181.3" y="85.1" transform="matrix(0.984 0.1779 -0.1779 0.984 18.9956 -35.8556)" class="st10" width="56.4" height="5.8"/>
	<polygon class="st11" points="225.6,156.7 170.2,146.7 166.6,167.8 221.8,177.8 	"/>
</g>
<g>
	<path class="st12" d="M8.8,15.3l3.1-2.8l4.9-3l3.9-1.5c0,0,31.9,52.3,33.2,54.4c0.1,0.1,0.2,0.2,0.2,0.4l0,0l1,14.7
		c0,0.3,0,0.5,0,0.5l0,0l0,0l-13-7.9l0,0C42.1,70,42,69.8,42,69.7C40.7,67.6,8.8,15.3,8.8,15.3z"/>
	<polygon class="st13" points="42.2,70 54.1,62.8 55.2,77.9 55.2,77.9 	"/>
	<path class="st14" d="M52,76c-0.2-0.1,0.2-0.2,0.8-0.6c0.1-0.1,0.3-0.5,0.4-0.6c0.2-0.1,0.5,0,0.7-0.1c0.6-0.3,0.9-0.7,0.9-0.5
		c0,0.5,0.3,3.7,0.3,3.7l0,0C55.2,77.9,52.5,76.3,52,76z"/>
	<path class="st15" d="M45.8,68.1c1,1.7,5.8-1.4,4.9-3c-1.2-2-33.9-55.6-33.9-55.6l-4.9,3C11.9,12.5,44.5,66,45.8,68.1z"/>
	<path class="st16" d="M42,69.7c1,1.7,4.8,0,3.9-1.5c-1.2-2-33.9-55.6-33.9-55.6l-3.1,2.8C8.8,15.3,40.7,67.6,42,69.7z"/>
	<path class="st17" d="M53.9,62.4c1,1.7-2.2,4.3-3.1,2.7c-1.2-2-33.9-55.6-33.9-55.6l3.9-1.5C20.7,8.1,52.6,60.3,53.9,62.4z"/>
</g>
<ellipse transform="matrix(0.1779 -0.984 0.984 0.1779 -19.6142 337.9264)" class="st6" cx="192.4" cy="180.7" rx="4.4" ry="4.4"/>
</svg>
