<?xml version="1.0" encoding="utf-8"?>
<!-- Generator: Adobe Illustrator 19.2.0, SVG Export Plug-In . SVG Version: 6.00 Build 0)  -->
<svg version="1.1" id="Calque_1" xmlns="http://www.w3.org/2000/svg" xmlns:xlink="http://www.w3.org/1999/xlink" x="0px" y="0px"
	 viewBox="0 0 197.5 200" style="enable-background:new 0 0 197.5 200;" xml:space="preserve">
<style type="text/css">
	.st0{fill:#E3EDF3;stroke:#A5B2B8;stroke-width:2;}
	.st1{fill:#FFFFFF;stroke:#231F20;stroke-width:0.5;}
	.st2{fill:#E3E3E3;stroke:#ABABAB;stroke-width:0.25;}
	.st3{fill:#FFFFFF;stroke:#989898;stroke-width:0.5;}
	.st4{fill:#F9A91A;}
	.st5{fill:#FFFFFF;stroke:#231F20;stroke-miterlimit:10;}
</style>
<circle class="st0" cx="99.9" cy="103.4" r="90.5"/>
<path class="st1" d="M169.3,172.3L60,192.5c-1.5,0.3-3-0.7-3.3-2.3L27.5,31.9c-0.3-1.5,0.7-3,2.3-3.3L139.1,8.4
	c1.5-0.3,3,0.7,3.3,2.3L171.6,169C171.9,170.6,170.9,172.1,169.3,172.3z"/>
<rect x="44.7" y="29.2" transform="matrix(0.9834 -0.1815 0.1815 0.9834 -15.7182 19.4329)" class="st2" width="107.3" height="132.9"/>
<ellipse transform="matrix(0.9834 -0.1815 0.1815 0.9834 -29.0964 23.19)" class="st3" cx="112.2" cy="170.6" rx="4.8" ry="4.8"/>
<ellipse transform="matrix(0.8705 -0.4923 0.4923 0.8705 -56.3319 77.8263)" class="st4" cx="119.7" cy="145.9" rx="7.8" ry="7.8"/>
<ellipse transform="matrix(0.8705 -0.4923 0.4923 0.8705 -33.5163 76.0056)" class="st4" cx="127.6" cy="101.7" rx="7.8" ry="7.8"/>
<path class="st5" d="M118.8,141.8c-2.4,1.4-3.9,3.4-2.8,5.3c0.7,1.3,3.3,1.6,5.3,3.7c1.9,1.3,12.4,4,15.1,5.1
	c5.6,6.4,15.9,13.7,21.9,12.6c2.7,1.1,5.3,6.9,6.4,8.8c10.3-1.8,25.5-7.8,26.8-8.5c-0.4-5.9-6.3-26-7.5-29.1
	c-1.2-3.1-8.6-19.2-10.2-21.5c-2.3-2.5-5.7-5.5-8.3-2.3c-1-2.3-4-6.5-10.1-1.9c-1.6-2.9-4.2-4.3-6.6-4.4c-0.3-2.1-1.1-5.5-1.9-7
	c-0.9-2.1-13.6-10.3-20.1-6.3c-2,1.1-4,5.2-2.8,7.4c0.7,1.3,7.5,3.6,9.6,4.7c2.3,2.5,4.4,4.8,5.3,13c-0.2,4.2,0.6,14.4-0.4,16.2
	C135,138.1,124.8,140.1,118.8,141.8z"/>
</svg>
