<?xml version="1.0" encoding="utf-8"?>
<!-- Generator: Adobe Illustrator 19.2.0, SVG Export Plug-In . SVG Version: 6.00 Build 0)  -->
<svg version="1.1" id="Calque_1" xmlns="http://www.w3.org/2000/svg" xmlns:xlink="http://www.w3.org/1999/xlink" x="0px" y="0px"
	 viewBox="0 0 197.5 200" style="enable-background:new 0 0 197.5 200;" xml:space="preserve">
<style type="text/css">
	.st0{fill:#E4EEF4;stroke:#A5B1B7;stroke-width:2;}
	.st1{fill:#FFFFFF;stroke:#1C1C1C;stroke-width:0.75;}
	.st2{fill:#E3E3E3;stroke:#1C1C1C;stroke-width:0.25;}
	.st3{clip-path:url(#SVGID_2_);fill:#FFFFFF;stroke:#1C1C1C;stroke-width:0.8076;stroke-miterlimit:10;}
	.st4{clip-path:url(#SVGID_2_);fill:#BABABA;stroke:#62BC46;stroke-width:0.2692;stroke-miterlimit:10;}
	.st5{clip-path:url(#SVGID_2_);}
	.st6{fill:#EDEDED;}
	.st7{clip-path:url(#SVGID_2_);fill:#D8D8D8;stroke:#1C1C1C;stroke-width:0.2692;stroke-miterlimit:10;}
	.st8{clip-path:url(#SVGID_2_);fill:#DDDDDD;}
	.st9{clip-path:url(#SVGID_2_);fill:#EDEDED;stroke:#1C1C1C;stroke-width:0.2692;stroke-miterlimit:10;}
	.st10{fill:#62BC46;}
	.st11{fill:#5B5B5B;}
	.st12{clip-path:url(#SVGID_2_);fill:#1C1C1C;}
</style>
<circle class="st0" cx="100" cy="98.7" r="91.8"/>
<path class="st1" d="M145.3,181.6H59.7c-1.6,0-2.8-1.3-2.8-2.8v-158c0-1.6,1.3-2.8,2.8-2.8h85.6c1.6,0,2.8,1.3,2.8,2.8v158
	C148.1,180.3,146.8,181.6,145.3,181.6z"/>
<rect x="61.1" y="28.5" class="st2" width="82.2" height="130"/>
<g>
	<defs>
		<rect id="SVGID_1_" x="61.1" y="28.1" width="82.2" height="130"/>
	</defs>
	<clipPath id="SVGID_2_">
		<use xlink:href="#SVGID_1_"  style="overflow:visible;"/>
	</clipPath>
	<rect x="61.4" y="28.1" class="st3" width="81.6" height="182.7"/>
	<rect x="66" y="52.9" class="st4" width="72.1" height="72"/>
	<g class="st5">
		<path class="st6" d="M101.6,119.4H70.4c-0.3,0-0.5-0.2-0.5-0.5v-3.4c0-0.3,0.2-0.5,0.5-0.5h31.2c0.3,0,0.5,0.2,0.5,0.5v3.4
			C102.1,119.2,101.9,119.4,101.6,119.4z"/>
	</g>
	<rect x="69.7" y="161.9" class="st7" width="63.5" height="41.5"/>
	<path class="st8" d="M132.8,140.6H70.2c-0.3,0-0.5-0.2-0.5-0.5v-3.4c0-0.3,0.2-0.5,0.5-0.5h62.5c0.3,0,0.5,0.2,0.5,0.5v3.4
		C133.2,140.4,133,140.6,132.8,140.6z"/>
	<path class="st8" d="M100.5,146.4H70.2c-0.3,0-0.5-0.2-0.5-0.5v-3.4c0-0.3,0.2-0.5,0.5-0.5h30.3c0.3,0,0.5,0.2,0.5,0.5v3.4
		C101,146.2,100.8,146.4,100.5,146.4z"/>
	<path class="st8" d="M132.8,159.2H70.2c-0.3,0-0.5-0.2-0.5-0.5v-7.3c0-0.3,0.2-0.5,0.5-0.5h62.6c0.3,0,0.5,0.2,0.5,0.5v7.3
		C133.3,158.9,133.1,159.2,132.8,159.2z"/>
	<path class="st8" d="M87.3,133H70.1c-0.2,0-0.4-0.2-0.4-0.4v-1.3c0-0.2,0.2-0.4,0.4-0.4h17.2c0.2,0,0.4,0.2,0.4,0.4v1.3
		C87.7,132.8,87.5,133,87.3,133z"/>
	<circle class="st9" cx="101.4" cy="82.4" r="25.4"/>
	<g class="st5">
		<rect x="97.8" y="81.5" class="st10" width="7.2" height="1.7"/>
		
			<rect x="97.8" y="81.5" transform="matrix(4.399953e-011 -1 1 4.399953e-011 18.9994 183.7568)" class="st10" width="7.2" height="1.7"/>
	</g>
	<g class="st5">
		<rect x="97.8" y="180.8" class="st11" width="7.2" height="1.7"/>
		
			<rect x="97.8" y="180.8" transform="matrix(4.399953e-011 -1 1 4.399953e-011 -80.3297 283.0859)" class="st11" width="7.2" height="1.7"/>
	</g>
	<path class="st9" d="M132.8,45.2H86.5c-0.3,0-0.5-0.2-0.5-0.5v-7.3c0-0.3,0.2-0.5,0.5-0.5h46.3c0.3,0,0.5,0.2,0.5,0.5v7.3
		C133.3,45,133.1,45.2,132.8,45.2z"/>
	<path class="st12" d="M79.1,41.9h-8.3c-0.2,0-0.3-0.1-0.3-0.3v-1c0-0.2,0.1-0.3,0.3-0.3h8.3c0.2,0,0.3,0.1,0.3,0.3v1
		C79.4,41.8,79.2,41.9,79.1,41.9z"/>
	<path class="st12" d="M79.1,44.8h-8.3c-0.2,0-0.3-0.1-0.3-0.3v-1c0-0.2,0.1-0.3,0.3-0.3h8.3c0.2,0,0.3,0.1,0.3,0.3v1
		C79.4,44.7,79.2,44.8,79.1,44.8z"/>
</g>
</svg>
