<?xml version="1.0" encoding="utf-8"?>
<svg xmlns="http://www.w3.org/2000/svg" xmlns:xlink="http://www.w3.org/1999/xlink" version="1.1" id="Ebene_1" x="0px" y="0px" width="370" height="209" viewBox="0 0 979 553" style="enable-background:new 0 0 979 553;" xml:space="preserve">
<style type="text/css">
	.st0{fill:#172565;}
</style>
<title>neumarkt-swisscom-logo</title>
<path class="st0" d="M611.2,261.7c-4.9-1.9-10.2-2.9-15.5-3c-5.9,0-10.4,1.5-10.4,6.9c0,12.6,32.5,4.8,32.5,30.8  c0,17.6-14.3,24.3-30.3,24.3c-7.2,0-14.6-1.1-21.5-3.1l1.3-15.4c6.3,2.2,12.8,3.3,19.5,3.7c6.2,0,11.3-1.9,11.3-7.3  c0-13.5-32.5-4.8-32.5-30.7c0-16.1,13.6-22.8,28.7-22.8c6.9-0.1,13.8,1,20.4,3.1L611.2,261.7z M551.8,261.7c-5-1.9-10.2-2.8-15.5-3  c-5.9,0-10.6,1.5-10.6,6.9c0,12.6,32.6,4.8,32.6,30.8c0,17.6-14.4,24.3-30.3,24.3c-7.3,0-14.7-1.1-21.8-3.1l1.4-15.4  c6.4,2.1,12.9,3.3,19.6,3.7c6,0,11.1-1.9,11.1-7.3c0-13.5-32.6-4.8-32.6-30.7c0-16.1,13.8-22.8,28.7-22.8c7-0.1,14,1,20.7,3.1  L551.8,261.7z M851.7,244.5c14.1,0,22.4,7.6,22.4,24.4v50.2h-18.8v-46.4c0-7.3-2.2-12.4-10.2-12.4c-8,0-15.2,7-15.2,19.6v39.2h-18.5  v-46.4c0-6.9-2.3-12.4-10.3-12.4c-8,0-14.8,7.8-14.8,20.4v38.5h-19.2v-72.9c12.4-1.6,17.2,3.7,17.7,11.7  c4.5-8.4,13.4-13.5,22.9-13.2c13.1,0,18.5,7.3,20.3,14.1C832.4,249.6,841.8,244.1,851.7,244.5z M467.9,246.1  c-5.3,24.8-12.3,49.1-21.1,72.9h-19.9l-14-48.6l0,0l-14,48.6h-19.8c-6.4-16.9-17.8-52.2-21.1-72.9h18.7l12.1,50.1h0.3l14.8-50.1  h18.7l14.4,49.7h0.3l12.5-49.7L467.9,246.1z M346.6,261.7c-4.9-1.9-10.1-2.9-15.4-3c-5.9,0-10.3,1.5-10.3,6.9  c0,12.6,32.3,4.8,32.3,30.8c0,17.6-14.3,24.3-30.3,24.3c-7.2,0-14.6-1.1-21.5-3.1l1.2-15.4c6.4,2.1,12.9,3.3,19.6,3.7  c6.3,0,11.4-1.9,11.4-7.3c0-13.5-32.5-4.8-32.5-30.7c0-16.1,13.6-22.8,28.7-22.8c6.9-0.1,13.8,1,20.4,3.1L346.6,261.7z M720.9,320.5  c-20.7,0-35.2-11.4-35.2-36.9c0-22.8,15.3-39.2,37.4-39.2c20.7,0,34,11.5,34,36.4C757,304.6,742.5,320.4,720.9,320.5L720.9,320.5  L720.9,320.5z M721.7,260.5c-8.4,0-16.4,6.3-16.4,22.1c0,13.9,5.3,21.6,16.1,21.6c9.3,0,16.4-7.3,16.4-22.1  C737.8,268.1,732.7,260.5,721.7,260.5z M476.5,319h18.7v-72.9c-8.8-0.9-18.7,1.5-18.7,15.3V319z M486.7,236.9  c6.5,0.1,11.8-5,11.9-11.5c0-0.1,0-0.1,0-0.2c-0.4-6.5-6-11.5-12.4-11.1c-6,0.3-10.8,5.1-11.1,11.1  C475.2,231.7,480.3,236.8,486.7,236.9z M661.4,320.3c-21.6,0-35.7-10.9-35.7-36.6c0-21.9,12-38.9,38.7-38.9c6.1,0,12.1,1.1,17.8,3  l-4,15.3c-4.2-1.7-8.7-2.5-13.2-2.7c-13.6,0-19.2,8.9-19.2,22.1c0,13.2,5.1,21.6,18.5,21.6c5.1,0,10.1-1.1,14.8-3.1l2.2,15  C674.9,319,668.2,320.4,661.4,320.3L661.4,320.3z"/>
<path class="st0" d="M142.9,309c-3.9,5.1-6.3,11.4-6.5,17.8c0,10.6,8.4,25,29.6,34.4c-3.7-8.5-6.6-17.4-8.2-26.6  C155.3,324.9,150.2,316,142.9,309z M201.5,235.5c11.1,7.3,24.7,16.6,35.6,25.8c0.5-3.6,0.7-7.1,0.7-10.8c0.9-22.2-13-42.4-34.1-49.5  c-4.4-1.6-9-2.3-13.7-2.4c-1.3,0-2.4,0.1-3.7,0.2v26.4C190.5,228.1,195.7,231.6,201.5,235.5z M179.3,219.4c-9.3-7.6-20.5-20-20.5-27  c0-0.6,0.1-1.3,0.2-1.9c0.6-2.4,2-4.7,3.9-6.3c1.8-1.5,3.7-2.5,5.9-3.3c2.3-0.9,4.9-1.4,7.3-1.5c1-0.2,2-0.2,3,0L179.3,219.4z   M264.2,320.3c-0.1,3.5-0.7,7.1-1.5,10.6c-1.6,6.1-4.1,11.7-7.6,16.8c-3.4,4.9-7.4,9.3-12,13.2c-4,3.4-8.4,6.5-13,9.1  c-3.5,2.1-7.2,3.9-11.1,5.6c-4.2,1.9-8.5,3.4-12.8,4.8c-5,1.6-10.1,2.7-15.3,3.7c-4,0.8-7.9,1.3-11.7,1.6V232.5l0,0  c-4.7,0.6-8.8,3.7-10.5,8.1c-1.4,4.3-3.2,8.5-5.6,12.4c-5.7,7.7-20.4,6-22.6,16.6c-3.3,15.7,17,18.9,23.1,29.9  c3.9,7.1,2.6,17.9,8.3,24.1v33.5c-0.5-0.9-0.9-1.8-1.3-2.7c-0.4-1-1.1-2.6-1.5-4c-0.4-1.4-0.6-1.9-0.9-2.7  c-2.5-8.5-3.7-17.4-7.3-25.6c-4.2-8.3-9.8-15.9-16.6-22.1c-4.5-4.4-9.4-8.4-14.1-12.5l-2.1-1.8c-4.1-3.4-7.8-7.2-11.1-11.5  c-2.9-3.8-4.9-8.2-6-12.9c-0.3-1.3-0.4-2.6-0.5-4c-0.1-1.3-0.1-2.4,0-3.7c0.9-7.7,4.2-14.9,9.5-20.7c2.7-3.1,5.6-6.1,8.7-8.8  c3.1-2.8,6.4-5.6,9.7-8.2c5-4,16.1-12,16.7-12.5c6.5,9.9,14.7,18.6,24.3,25.6c12,9.5,38.7,25.3,56.4,40.9c3,2.7,5.9,5.4,8.4,8.1l0,0  c4.6,4.7,8.7,9.9,12.2,15.5c3,4.7,5.2,9.8,6.7,15.2C264,312.2,264.4,316.2,264.2,320.3L264.2,320.3z"/>
</svg>
